<?xml version="1.0" encoding="utf-8"?>
<!-- Generator: Adobe Illustrator 15.1.0, SVG Export Plug-In . SVG Version: 6.00 Build 0)  -->
<!DOCTYPE svg PUBLIC "-//W3C//DTD SVG 1.1//EN" "http://www.w3.org/Graphics/SVG/1.1/DTD/svg11.dtd">
<svg version="1.1" id="Layer_1" xmlns="http://www.w3.org/2000/svg" xmlns:xlink="http://www.w3.org/1999/xlink" x="0px" y="0px"
	 width="512px" height="512px" viewBox="0 0 512 512" enable-background="new 0 0 512 512" xml:space="preserve">
<path fill="#9B8579" stroke="#000000" stroke-width="9" stroke-miterlimit="10" d="M492.522,481.063c0,6.627-5.373,12-12,12H24.638
	c-6.627,0-12-5.373-12-12V25.179c0-6.627,5.373-12,12-12h455.885c6.627,0,12,5.373,12,12V481.063z"/>
<polygon fill="#6D6E71" stroke="#000000" stroke-width="4" stroke-miterlimit="10" points="436.883,491 66.194,491 66.194,254.104 
	323.125,254.104 436.883,319.437 "/>
<rect x="81.833" y="272.167" fill="#726658" stroke="#000000" stroke-width="3" stroke-miterlimit="10" width="207.334" height="35"/>
<polygon fill="#F15A29" stroke="#000000" stroke-width="4" stroke-miterlimit="10" points="301.5,321.75 301.5,272.25 
	325.646,272.25 410.25,321.75 410.25,478.75 301.5,478.75 "/>
<g>
	<line fill="none" stroke="#000000" stroke-width="2" stroke-miterlimit="10" x1="410.25" y1="321.75" x2="301.5" y2="321.75"/>
	<line fill="none" stroke="#000000" stroke-width="2" stroke-miterlimit="10" x1="411.5" y1="341.75" x2="302.75" y2="341.75"/>
	<line fill="none" stroke="#000000" stroke-width="2" stroke-miterlimit="10" x1="411.5" y1="362.25" x2="302.75" y2="362.25"/>
	<line fill="none" stroke="#000000" stroke-width="2" stroke-miterlimit="10" x1="410.5" y1="382.25" x2="301.75" y2="382.25"/>
	<line fill="none" stroke="#000000" stroke-width="2" stroke-miterlimit="10" x1="410.5" y1="402.25" x2="301.75" y2="402.25"/>
	<line fill="none" stroke="#000000" stroke-width="2" stroke-miterlimit="10" x1="410.5" y1="422.25" x2="301.75" y2="422.25"/>
	<line fill="none" stroke="#000000" stroke-width="2" stroke-miterlimit="10" x1="410.5" y1="442.25" x2="301.75" y2="442.25"/>
	<line fill="none" stroke="#000000" stroke-width="2" stroke-miterlimit="10" x1="410.5" y1="462.25" x2="301.75" y2="462.25"/>
	<line fill="none" stroke="#000000" stroke-width="2" stroke-miterlimit="10" x1="374.75" y1="301.333" x2="299.75" y2="301.333"/>
</g>
<g>
	<rect x="90.115" y="285.584" fill="#C49A6C" stroke="#000000" stroke-miterlimit="10" width="16.75" height="15.166"/>
	<g>
		<g>
			<line fill="none" stroke="#A97C50" stroke-miterlimit="10" x1="98.438" y1="285.75" x2="98.438" y2="300.792"/>
			<line fill="none" stroke="#A97C50" stroke-miterlimit="10" x1="102.5" y1="285.418" x2="102.5" y2="300.792"/>
			<line fill="none" stroke="#A97C50" stroke-miterlimit="10" x1="94.438" y1="285.75" x2="94.438" y2="301.124"/>
			<line fill="none" stroke="#A97C50" stroke-miterlimit="10" x1="106.5" y1="285.418" x2="106.5" y2="300.792"/>
			<line fill="none" stroke="#A97C50" stroke-miterlimit="10" x1="90.479" y1="285.418" x2="90.479" y2="300.792"/>
		</g>
		<line fill="none" stroke="#000000" stroke-miterlimit="10" x1="90.115" y1="285.418" x2="106.865" y2="300.584"/>
		<line fill="none" stroke="#000000" stroke-miterlimit="10" x1="90.115" y1="300.584" x2="106.865" y2="285.418"/>
	</g>
	
		<rect x="90.479" y="285.584" fill="none" stroke="#000000" stroke-width="2" stroke-miterlimit="10" width="16.186" height="14.819"/>
</g>
<path fill="#414042" stroke="#000000" stroke-width="3" stroke-miterlimit="10" d="M288.918,304.146
	c0-1.669-2.078-3.021-4.641-3.021H86.723c-2.563,0-4.64,1.353-4.64,3.021l0,0c0,1.669,2.078,3.021,4.64,3.021h197.554
	C286.84,307.167,288.918,305.814,288.918,304.146L288.918,304.146z"/>
<rect x="81.833" y="272.167" fill="none" stroke="#000000" stroke-width="3" stroke-miterlimit="10" width="207.334" height="35"/>
<line fill="none" stroke="#000000" stroke-miterlimit="10" x1="86.333" y1="301.137" x2="89.667" y2="307.167"/>
<line fill="none" stroke="#000000" stroke-miterlimit="10" x1="136.333" y1="301.137" x2="139.667" y2="307.167"/>
<line fill="none" stroke="#000000" stroke-miterlimit="10" x1="96.333" y1="301.137" x2="99.667" y2="307.167"/>
<line fill="none" stroke="#000000" stroke-miterlimit="10" x1="106.333" y1="301.137" x2="109.667" y2="307.167"/>
<line fill="none" stroke="#000000" stroke-miterlimit="10" x1="106.333" y1="301.137" x2="109.667" y2="307.167"/>
<line fill="none" stroke="#000000" stroke-miterlimit="10" x1="116.333" y1="301.137" x2="119.667" y2="307.167"/>
<line fill="none" stroke="#000000" stroke-miterlimit="10" x1="126.333" y1="301.137" x2="129.667" y2="307.167"/>
<line fill="none" stroke="#000000" stroke-miterlimit="10" x1="146.333" y1="301.137" x2="149.667" y2="307.167"/>
<line fill="none" stroke="#000000" stroke-miterlimit="10" x1="156.333" y1="301.137" x2="159.667" y2="307.167"/>
<line fill="none" stroke="#000000" stroke-miterlimit="10" x1="166.333" y1="301.137" x2="169.667" y2="307.167"/>
<line fill="none" stroke="#000000" stroke-miterlimit="10" x1="176.333" y1="301.137" x2="179.667" y2="307.167"/>
<line fill="none" stroke="#000000" stroke-miterlimit="10" x1="186.333" y1="301.137" x2="189.667" y2="307.167"/>
<line fill="none" stroke="#000000" stroke-miterlimit="10" x1="196.333" y1="301.137" x2="199.667" y2="307.167"/>
<line fill="none" stroke="#000000" stroke-miterlimit="10" x1="206.333" y1="301.137" x2="209.667" y2="307.167"/>
<line fill="none" stroke="#000000" stroke-miterlimit="10" x1="216.333" y1="301.137" x2="219.667" y2="307.167"/>
<line fill="none" stroke="#000000" stroke-miterlimit="10" x1="226.333" y1="301.137" x2="229.667" y2="307.167"/>
<line fill="none" stroke="#000000" stroke-miterlimit="10" x1="236.333" y1="301.137" x2="239.667" y2="307.167"/>
<line fill="none" stroke="#000000" stroke-miterlimit="10" x1="246.333" y1="301.137" x2="249.667" y2="307.167"/>
<line fill="none" stroke="#000000" stroke-miterlimit="10" x1="256.332" y1="301.137" x2="259.667" y2="307.167"/>
<line fill="none" stroke="#000000" stroke-miterlimit="10" x1="266.332" y1="301.137" x2="269.667" y2="307.167"/>
<line fill="none" stroke="#000000" stroke-miterlimit="10" x1="276.332" y1="301.137" x2="279.667" y2="307.167"/>
<g>
	<rect x="120.115" y="284.584" fill="#C49A6C" stroke="#000000" stroke-miterlimit="10" width="16.75" height="15.166"/>
	<g>
		<g>
			<line fill="none" stroke="#A97C50" stroke-miterlimit="10" x1="128.438" y1="284.75" x2="128.438" y2="299.792"/>
			<line fill="none" stroke="#A97C50" stroke-miterlimit="10" x1="132.5" y1="284.418" x2="132.5" y2="299.792"/>
			<line fill="none" stroke="#A97C50" stroke-miterlimit="10" x1="124.438" y1="284.75" x2="124.438" y2="300.124"/>
			<line fill="none" stroke="#A97C50" stroke-miterlimit="10" x1="136.5" y1="284.418" x2="136.5" y2="299.792"/>
			<line fill="none" stroke="#A97C50" stroke-miterlimit="10" x1="120.479" y1="284.418" x2="120.479" y2="299.792"/>
		</g>
		<line fill="none" stroke="#000000" stroke-miterlimit="10" x1="120.115" y1="284.418" x2="136.865" y2="299.584"/>
		<line fill="none" stroke="#000000" stroke-miterlimit="10" x1="120.115" y1="299.584" x2="136.865" y2="284.418"/>
	</g>
	
		<rect x="120.479" y="284.584" fill="none" stroke="#000000" stroke-width="2" stroke-miterlimit="10" width="16.186" height="14.819"/>
</g>
<g>
	<rect x="150.115" y="285.584" fill="#C49A6C" stroke="#000000" stroke-miterlimit="10" width="16.75" height="15.166"/>
	<g>
		<g>
			<line fill="none" stroke="#A97C50" stroke-miterlimit="10" x1="158.438" y1="285.75" x2="158.438" y2="300.792"/>
			<line fill="none" stroke="#A97C50" stroke-miterlimit="10" x1="162.5" y1="285.418" x2="162.5" y2="300.792"/>
			<line fill="none" stroke="#A97C50" stroke-miterlimit="10" x1="154.438" y1="285.75" x2="154.438" y2="301.124"/>
			<line fill="none" stroke="#A97C50" stroke-miterlimit="10" x1="166.5" y1="285.418" x2="166.5" y2="300.792"/>
			<line fill="none" stroke="#A97C50" stroke-miterlimit="10" x1="150.479" y1="285.418" x2="150.479" y2="300.792"/>
		</g>
		<line fill="none" stroke="#000000" stroke-miterlimit="10" x1="150.115" y1="285.418" x2="166.865" y2="300.584"/>
		<line fill="none" stroke="#000000" stroke-miterlimit="10" x1="150.115" y1="300.584" x2="166.865" y2="285.418"/>
	</g>
	
		<rect x="150.479" y="285.584" fill="none" stroke="#000000" stroke-width="2" stroke-miterlimit="10" width="16.186" height="14.819"/>
</g>
<g>
	<rect x="180.115" y="284.584" fill="#C49A6C" stroke="#000000" stroke-miterlimit="10" width="16.75" height="15.166"/>
	<g>
		<g>
			<line fill="none" stroke="#A97C50" stroke-miterlimit="10" x1="188.438" y1="284.75" x2="188.438" y2="299.792"/>
			<line fill="none" stroke="#A97C50" stroke-miterlimit="10" x1="192.5" y1="284.418" x2="192.5" y2="299.792"/>
			<line fill="none" stroke="#A97C50" stroke-miterlimit="10" x1="184.438" y1="284.75" x2="184.438" y2="300.124"/>
			<line fill="none" stroke="#A97C50" stroke-miterlimit="10" x1="196.5" y1="284.418" x2="196.5" y2="299.792"/>
			<line fill="none" stroke="#A97C50" stroke-miterlimit="10" x1="180.479" y1="284.418" x2="180.479" y2="299.792"/>
		</g>
		<line fill="none" stroke="#000000" stroke-miterlimit="10" x1="180.115" y1="284.418" x2="196.865" y2="299.584"/>
		<line fill="none" stroke="#000000" stroke-miterlimit="10" x1="180.115" y1="299.584" x2="196.865" y2="284.418"/>
	</g>
	
		<rect x="180.479" y="284.584" fill="none" stroke="#000000" stroke-width="2" stroke-miterlimit="10" width="16.186" height="14.819"/>
</g>
<g>
	<rect x="210.115" y="285.584" fill="#C49A6C" stroke="#000000" stroke-miterlimit="10" width="16.75" height="15.166"/>
	<g>
		<g>
			<line fill="none" stroke="#A97C50" stroke-miterlimit="10" x1="218.438" y1="285.75" x2="218.438" y2="300.792"/>
			<line fill="none" stroke="#A97C50" stroke-miterlimit="10" x1="222.5" y1="285.418" x2="222.5" y2="300.792"/>
			<line fill="none" stroke="#A97C50" stroke-miterlimit="10" x1="214.438" y1="285.75" x2="214.438" y2="301.124"/>
			<line fill="none" stroke="#A97C50" stroke-miterlimit="10" x1="226.5" y1="285.418" x2="226.5" y2="300.792"/>
			<line fill="none" stroke="#A97C50" stroke-miterlimit="10" x1="210.479" y1="285.418" x2="210.479" y2="300.792"/>
		</g>
		<line fill="none" stroke="#000000" stroke-miterlimit="10" x1="210.115" y1="285.418" x2="226.865" y2="300.584"/>
		<line fill="none" stroke="#000000" stroke-miterlimit="10" x1="210.115" y1="300.584" x2="226.865" y2="285.418"/>
	</g>
	
		<rect x="210.479" y="285.584" fill="none" stroke="#000000" stroke-width="2" stroke-miterlimit="10" width="16.186" height="14.819"/>
</g>
<g>
	<rect x="240.115" y="284.584" fill="#C49A6C" stroke="#000000" stroke-miterlimit="10" width="16.75" height="15.166"/>
	<g>
		<g>
			<line fill="none" stroke="#A97C50" stroke-miterlimit="10" x1="248.438" y1="284.75" x2="248.438" y2="299.792"/>
			<line fill="none" stroke="#A97C50" stroke-miterlimit="10" x1="252.5" y1="284.418" x2="252.5" y2="299.792"/>
			<line fill="none" stroke="#A97C50" stroke-miterlimit="10" x1="244.438" y1="284.75" x2="244.438" y2="300.124"/>
			<line fill="none" stroke="#A97C50" stroke-miterlimit="10" x1="256.5" y1="284.418" x2="256.5" y2="299.792"/>
			<line fill="none" stroke="#A97C50" stroke-miterlimit="10" x1="240.479" y1="284.418" x2="240.479" y2="299.792"/>
		</g>
		<line fill="none" stroke="#000000" stroke-miterlimit="10" x1="240.115" y1="284.418" x2="256.865" y2="299.584"/>
		<line fill="none" stroke="#000000" stroke-miterlimit="10" x1="240.115" y1="299.584" x2="256.865" y2="284.418"/>
	</g>
	
		<rect x="240.479" y="284.584" fill="none" stroke="#000000" stroke-width="2" stroke-miterlimit="10" width="16.186" height="14.819"/>
</g>
<g>
	<rect x="270.115" y="285.584" fill="#C49A6C" stroke="#000000" stroke-miterlimit="10" width="16.75" height="15.166"/>
	<g>
		<g>
			<line fill="none" stroke="#A97C50" stroke-miterlimit="10" x1="278.438" y1="285.75" x2="278.438" y2="300.792"/>
			<line fill="none" stroke="#A97C50" stroke-miterlimit="10" x1="282.5" y1="285.418" x2="282.5" y2="300.792"/>
			<line fill="none" stroke="#A97C50" stroke-miterlimit="10" x1="274.438" y1="285.75" x2="274.438" y2="301.124"/>
			<line fill="none" stroke="#A97C50" stroke-miterlimit="10" x1="286.5" y1="285.418" x2="286.5" y2="300.792"/>
			<line fill="none" stroke="#A97C50" stroke-miterlimit="10" x1="270.479" y1="285.418" x2="270.479" y2="300.792"/>
		</g>
		<line fill="none" stroke="#000000" stroke-miterlimit="10" x1="270.115" y1="285.418" x2="286.865" y2="300.584"/>
		<line fill="none" stroke="#000000" stroke-miterlimit="10" x1="270.115" y1="300.584" x2="286.865" y2="285.418"/>
	</g>
	
		<rect x="270.479" y="285.584" fill="none" stroke="#000000" stroke-width="2" stroke-miterlimit="10" width="16.186" height="14.819"/>
</g>
<rect x="83.25" y="330.5" fill="#726658" stroke="#000000" stroke-width="4" stroke-miterlimit="10" width="24.75" height="129.5"/>
<rect x="123.25" y="321" fill="#726658" stroke="#000000" stroke-width="4" stroke-miterlimit="10" width="24.75" height="129.5"/>
<rect x="163.25" y="331" fill="#726658" stroke="#000000" stroke-width="4" stroke-miterlimit="10" width="24.75" height="129.5"/>
<rect x="203.25" y="321" fill="#726658" stroke="#000000" stroke-width="4" stroke-miterlimit="10" width="24.75" height="129.5"/>
<ellipse fill="#414042" stroke="#000000" stroke-width="4" stroke-miterlimit="10" cx="95.625" cy="349.666" rx="12.375" ry="11.667"/>
<ellipse fill="#414042" stroke="#000000" stroke-width="4" stroke-miterlimit="10" cx="135.625" cy="379.999" rx="12.375" ry="11.667"/>
<ellipse fill="#414042" stroke="#000000" stroke-width="4" stroke-miterlimit="10" cx="175.625" cy="343.882" rx="12.375" ry="11.667"/>
<ellipse fill="#414042" stroke="#000000" stroke-width="4" stroke-miterlimit="10" cx="215.625" cy="394.47" rx="12.375" ry="11.667"/>
<line fill="none" stroke="#000000" stroke-width="4" stroke-miterlimit="10" x1="95.625" y1="361.333" x2="90.479" y2="460"/>
<line fill="none" stroke="#000000" stroke-width="4" stroke-miterlimit="10" x1="135.625" y1="391.666" x2="143.25" y2="450.5"/>
<line fill="none" stroke="#000000" stroke-width="4" stroke-miterlimit="10" x1="176.333" y1="357" x2="171" y2="460.5"/>
<line fill="none" stroke="#000000" stroke-width="4" stroke-miterlimit="10" x1="215.625" y1="406.137" x2="219.667" y2="449.25"/>
<line fill="none" stroke="#000000" stroke-width="4" stroke-miterlimit="10" x1="133.75" y1="367.25" x2="141.75" y2="321.75"/>
<line fill="none" stroke="#000000" stroke-width="4" stroke-miterlimit="10" x1="98.572" y1="338.336" x2="92" y2="330.5"/>
<line fill="none" stroke="#000000" stroke-width="4" stroke-miterlimit="10" x1="215.625" y1="382.804" x2="219.667" y2="321"/>
<path fill="none" stroke="#000000" stroke-width="9" stroke-miterlimit="10" d="M495.942,480.896c0,6.627-5.373,12-12,12H28.058
	c-6.627,0-12-5.373-12-12V25.012c0-6.627,5.373-12,12-12h455.885c6.627,0,12,5.373,12,12V480.896z"/>
<polygon fill="#6D6E71" stroke="#000000" stroke-width="4" stroke-miterlimit="10" points="279.576,220.416 99.976,220.416 
	69.438,250.954 309.438,250.278 "/>
<rect x="124.917" y="187" fill="#6D6E71" stroke="#000000" stroke-width="4" stroke-miterlimit="10" width="125.5" height="33.416"/>
<path fill="#FFFFFF" d="M294.654,107.258c2.874-4.199,3.434-9.875,1.667-15.087c-1.51-4.456-4.732-7.082-8.586-8.681
	c1.169-1.106,2.233-2.325,3.098-3.75c3.576-5.896,0.249-12.867-3.535-17.627c-5.833-7.34-14.798-7.952-23.406-9.348
	c2.265-2.588,3.558-5.754,2.695-9.846c-1.158-5.496-4.195-9.332-8.329-11.778c2.84-5.861,0.526-13.468-7.929-15.461
	c-0.472-0.111-0.92-0.153-1.349-0.146c-0.648-0.333-1.416-0.533-2.313-0.533c-0.69,0-1.302,0.12-1.844,0.325
	C244.285,15.123,243.683,15,243,15c-22.641,0.001-45.25,1.44-67.882,1.194c-23.884-0.259-47.743-1.833-71.633-1.023
	c-21.394,0.726-43.194,1.867-64.527-0.046c-6.521-0.584-14.004-0.621-17.75,5.642c-3.26,5.449-3.306,13.86-2.029,19.896
	c0.144,0.68,0.412,1.256,0.769,1.735c-0.515,3.366-0.811,6.661,0.228,10.015c-0.559,0.765-0.843,1.791-0.675,3.087
	c0.768,5.919,0.766,11.225,4.98,15.868c3.157,3.479,7.611,5.071,12.222,5.434c0.593,2.483,2.037,5.032,4.08,7.24
	c4.187,4.524,9.239,7.076,14.728,8.279c-2.542,4.314-3.237,9.583-1.121,15.065c2.396,6.204,7.266,9.709,12.786,10.506
	c-0.27,3.663,0.748,7.571,2.792,11.129c2.937,5.11,7.852,8.986,13.389,10.567c-0.722,4.388,0.729,9.252,3.362,13.565
	c2.335,3.825,5.561,6.688,9.237,9.159c2.843,1.912,6.059,2.441,9.336,2.723c-1.601,3.85-1.575,8.096,1.191,12.212
	c4.543,6.762,13.806,9.332,21.516,9.252c1.497-0.016,2.642-0.57,3.443-1.407c0.592,0.258,1.276,0.407,2.057,0.407H245
	c0.458,0,0.88-0.055,1.273-0.149c0.275,0.176,0.571,0.336,0.898,0.47c9.378,3.861,19.254,0.586,22.666-9.303
	c1.411-4.089,1.043-8.075-0.5-11.588c1.501,0.047,3-0.043,4.495-0.376c5.08-1.132,9.809-4.219,11.768-9.188
	c2.1-5.327,0.683-11.023-2.077-16.085c7.352,1.082,14.356,1.738,17.482-7.625C303.436,124.379,300.338,113.64,294.654,107.258z"/>
</svg>
